{"title":"Foolproof 2003 DVDrip English Klam","uid":8221653,"size":1232386957,"categoryP":"video","categoryS":"movies","magnet":"?xt=urn:btih:2ee2002ac8a34fe12c533448fabe7373670e2d87&amp;dn=Foolproof+2003+DVDrip+English+Klam&amp;tr=udp%3A%2F%2Ftracker.openbittorrent.com%3A80&amp;tr=udp%3A%2F%2Fopen.demonii.com%3A1337&amp;tr=udp%3A%2F%2Ftracker.coppersurfer.tk%3A6969&amp;tr=udp%3A%2F%2Fexodus.desync.com%3A6969","seeders":0,"leechers":1,"uploader":"Klambake","files":-1,"time":1362490357,"description":"With: Ryan Reynolds, David Suchet and Kristin Booth\n\nKevin, Sam en Rob zijn de oprichters van een clubje genaamd 'Foolproof'. Het clubje bedenkt en berekent via high-tech apparatuur perfect uitgedachte plannen voor op het eerste gezicht onmogelijke overvallen. In theorie dan... Totdat ze door een gangster gechanteerd worden om ook daadwerkelijk een overval te plegen.\n\nKevin, Sam and Rob are founding members of a theoretical group which pulls off heists. Leo, a gangster, blackmails them into pulling off a real multi-million dollar heist. Now it's up to them to get out alive. \n &lt;a href=&quot;\nhttp://www.imdb.com/title/tt0356614&quot; rel=&quot;nofollow&quot; target=&quot;_NEW&quot;&gt;\nhttp://www.imdb.com/title/tt0356614&lt;/a&gt;\t\n\n------------------------ Dutch Friends ------------------------\n---------------------------------------------------------------\n- Bezoek ook eens mijn vrienden op: &lt;a href=&quot; http://www.Film-Test.nl&quot; rel=&quot;nofollow&quot; target=&quot;_NEW&quot;&gt; http://www.Film-Test.nl&lt;/a&gt; --\n----- voor mijn Nederlandse Sync. ondertitels ---- en meer ----\n------- http://www.Film-Test.nl ---- Over Films en meer -------\n---------------------------------------------------------------\n\nGeneral:\n\nComplete name                    : FoolproofFoolproof.avi\nFormat                           : AVI\nFormat/Info                      : Audio Video Interleave\nFile size                        : 1.15 GiB\nDuration                         : 1h 29mn\nOverall bit rate                 : 1 826 Kbps\n\nVideo:\n\nFormat                           : MPEG-4 Visual\nFormat profile                   : Simple@L3\nFormat settings, BVOP            : No\nFormat settings, QPel            : No\nFormat settings, GMC             : No warppoints\nFormat settings, Matrix          : Default (H.263)\nCodec ID                         : XVID\nCodec ID/Hint                    : XviD\nDuration                         : 1h 29mn\nBit rate                         : 1 367 Kbps\nWidth                            : 704 pixels\nHeight                           : 396 pixels\nDisplay aspect ratio             : 16:9\nFrame rate                       : 25.000 fps\nColor space                      : YUV\nChroma subsampling               : 4:2:0\nBit depth                        : 8 bits\nScan type                        : Progressive\nCompression mode                 : Lossy\nBits/(Pixel*Frame)               : 0.196\nStream size                      : 880 MiB (75%)\nWriting library                  : XviD 1.1.2 (UTC 2006-11-01)\n\nAudio:\n\nFormat                           : AC-3\nFormat/Info                      : Audio Coding 3\nMode extension                   : CM (complete main)\nCodec ID                         : 2000\nDuration                         : 1h 29mn\nBit rate mode                    : Constant\nBit rate                         : 448 Kbps\nChannel(s)                       : 6 channels\nChannel positions                : Front: L C R, Side: L R, LFE\nSampling rate                    : 48.0 KHz\nBit depth                        : 16 bits\nCompression mode                 : Lossy\nStream size                      : 288 MiB (25%)\nAlignment                        : Aligned on interleaves\nInterleave, duration             : 32 ms (0.80 video frame)\nInterleave, preload duration     : 96 ms","torrent":{"xt":"urn:btih:2ee2002ac8a34fe12c533448fabe7373670e2d87","amp;dn":"Foolproof+2003+DVDrip+English+Klam","amp;tr":["udp%3A%2F%2Ftracker.openbittorrent.com%3A80","udp%3A%2F%2Fopen.demonii.com%3A1337","udp%3A%2F%2Ftracker.coppersurfer.tk%3A6969","udp%3A%2F%2Fexodus.desync.com%3A6969"],"infoHash":"2ee2002ac8a34fe12c533448fabe7373670e2d87","infoHashBuffer":{"type":"Buffer","data":[46,226,0,42,200,163,79,225,44,83,52,72,250,190,115,115,103,14,45,135]},"announce":[],"urlList":[]}}